<svg class="rich-terminal" viewBox="0 0 2214 1270.0" xmlns="http://www.w3.org/2000/svg">
    <!-- Generated with Rich https://www.textualize.io -->
    <style>

    @font-face {
        font-family: "Fira Code";
        src: local("FiraCode-Regular"),
                url("https://cdnjs.cloudflare.com/ajax/libs/firacode/6.2.0/woff2/FiraCode-Regular.woff2") format("woff2"),
                url("https://cdnjs.cloudflare.com/ajax/libs/firacode/6.2.0/woff/FiraCode-Regular.woff") format("woff");
        font-style: normal;
        font-weight: 400;
    }
    @font-face {
        font-family: "Fira Code";
        src: local("FiraCode-Bold"),
                url("https://cdnjs.cloudflare.com/ajax/libs/firacode/6.2.0/woff2/FiraCode-Bold.woff2") format("woff2"),
                url("https://cdnjs.cloudflare.com/ajax/libs/firacode/6.2.0/woff/FiraCode-Bold.woff") format("woff");
        font-style: bold;
        font-weight: 700;
    }

    .terminal-793625025-matrix {
        font-family: Fira Code, monospace;
        font-size: 20px;
        line-height: 24.4px;
        font-variant-east-asian: full-width;
    }

    .terminal-793625025-title {
        font-size: 18px;
        font-weight: bold;
        font-family: arial;
    }

    .terminal-793625025-r1 { fill: #c5c8c6 }
.terminal-793625025-r2 { fill: #c4c5b5;font-weight: bold }
.terminal-793625025-r3 { fill: #9e9e9e;font-weight: bold }
.terminal-793625025-r4 { fill: #e0e0e0;font-weight: bold }
.terminal-793625025-r5 { fill: #33424e }
.terminal-793625025-r6 { fill: #fd971f;font-weight: bold }
.terminal-793625025-r7 { fill: #e0e0e0 }
.terminal-793625025-r8 { fill: #8d928a }
.terminal-793625025-r9 { fill: #a5a5a5 }
.terminal-793625025-r10 { fill: #98e024;font-weight: bold }
.terminal-793625025-r11 { fill: #777777 }
.terminal-793625025-r12 { fill: #8b8c81 }
    </style>

    <defs>
    <clipPath id="terminal-793625025-clip-terminal">
      <rect x="0" y="0" width="2195.0" height="1219.0" />
    </clipPath>
    <clipPath id="terminal-793625025-line-0">
    <rect x="0" y="1.5" width="2196" height="24.65"/>
            </clipPath>
<clipPath id="terminal-793625025-line-1">
    <rect x="0" y="25.9" width="2196" height="24.65"/>
            </clipPath>
<clipPath id="terminal-793625025-line-2">
    <rect x="0" y="50.3" width="2196" height="24.65"/>
            </clipPath>
<clipPath id="terminal-793625025-line-3">
    <rect x="0" y="74.7" width="2196" height="24.65"/>
            </clipPath>
<clipPath id="terminal-793625025-line-4">
    <rect x="0" y="99.1" width="2196" height="24.65"/>
            </clipPath>
<clipPath id="terminal-793625025-line-5">
    <rect x="0" y="123.5" width="2196" height="24.65"/>
            </clipPath>
<clipPath id="terminal-793625025-line-6">
    <rect x="0" y="147.9" width="2196" height="24.65"/>
            </clipPath>
<clipPath id="terminal-793625025-line-7">
    <rect x="0" y="172.3" width="2196" height="24.65"/>
            </clipPath>
<clipPath id="terminal-793625025-line-8">
    <rect x="0" y="196.7" width="2196" height="24.65"/>
            </clipPath>
<clipPath id="terminal-793625025-line-9">
    <rect x="0" y="221.1" width="2196" height="24.65"/>
            </clipPath>
<clipPath id="terminal-793625025-line-10">
    <rect x="0" y="245.5" width="2196" height="24.65"/>
            </clipPath>
<clipPath id="terminal-793625025-line-11">
    <rect x="0" y="269.9" width="2196" height="24.65"/>
            </clipPath>
<clipPath id="terminal-793625025-line-12">
    <rect x="0" y="294.3" width="2196" height="24.65"/>
            </clipPath>
<clipPath id="terminal-793625025-line-13">
    <rect x="0" y="318.7" width="2196" height="24.65"/>
            </clipPath>
<clipPath id="terminal-793625025-line-14">
    <rect x="0" y="343.1" width="2196" height="24.65"/>
            </clipPath>
<clipPath id="terminal-793625025-line-15">
    <rect x="0" y="367.5" width="2196" height="24.65"/>
            </clipPath>
<clipPath id="terminal-793625025-line-16">
    <rect x="0" y="391.9" width="2196" height="24.65"/>
            </clipPath>
<clipPath id="terminal-793625025-line-17">
    <rect x="0" y="416.3" width="2196" height="24.65"/>
            </clipPath>
<clipPath id="terminal-793625025-line-18">
    <rect x="0" y="440.7" width="2196" height="24.65"/>
            </clipPath>
<clipPath id="terminal-793625025-line-19">
    <rect x="0" y="465.1" width="2196" height="24.65"/>
            </clipPath>
<clipPath id="terminal-793625025-line-20">
    <rect x="0" y="489.5" width="2196" height="24.65"/>
            </clipPath>
<clipPath id="terminal-793625025-line-21">
    <rect x="0" y="513.9" width="2196" height="24.65"/>
            </clipPath>
<clipPath id="terminal-793625025-line-22">
    <rect x="0" y="538.3" width="2196" height="24.65"/>
            </clipPath>
<clipPath id="terminal-793625025-line-23">
    <rect x="0" y="562.7" width="2196" height="24.65"/>
            </clipPath>
<clipPath id="terminal-793625025-line-24">
    <rect x="0" y="587.1" width="2196" height="24.65"/>
            </clipPath>
<clipPath id="terminal-793625025-line-25">
    <rect x="0" y="611.5" width="2196" height="24.65"/>
            </clipPath>
<clipPath id="terminal-793625025-line-26">
    <rect x="0" y="635.9" width="2196" height="24.65"/>
            </clipPath>
<clipPath id="terminal-793625025-line-27">
    <rect x="0" y="660.3" width="2196" height="24.65"/>
            </clipPath>
<clipPath id="terminal-793625025-line-28">
    <rect x="0" y="684.7" width="2196" height="24.65"/>
            </clipPath>
<clipPath id="terminal-793625025-line-29">
    <rect x="0" y="709.1" width="2196" height="24.65"/>
            </clipPath>
<clipPath id="terminal-793625025-line-30">
    <rect x="0" y="733.5" width="2196" height="24.65"/>
            </clipPath>
<clipPath id="terminal-793625025-line-31">
    <rect x="0" y="757.9" width="2196" height="24.65"/>
            </clipPath>
<clipPath id="terminal-793625025-line-32">
    <rect x="0" y="782.3" width="2196" height="24.65"/>
            </clipPath>
<clipPath id="terminal-793625025-line-33">
    <rect x="0" y="806.7" width="2196" height="24.65"/>
            </clipPath>
<clipPath id="terminal-793625025-line-34">
    <rect x="0" y="831.1" width="2196" height="24.65"/>
            </clipPath>
<clipPath id="terminal-793625025-line-35">
    <rect x="0" y="855.5" width="2196" height="24.65"/>
            </clipPath>
<clipPath id="terminal-793625025-line-36">
    <rect x="0" y="879.9" width="2196" height="24.65"/>
            </clipPath>
<clipPath id="terminal-793625025-line-37">
    <rect x="0" y="904.3" width="2196" height="24.65"/>
            </clipPath>
<clipPath id="terminal-793625025-line-38">
    <rect x="0" y="928.7" width="2196" height="24.65"/>
            </clipPath>
<clipPath id="terminal-793625025-line-39">
    <rect x="0" y="953.1" width="2196" height="24.65"/>
            </clipPath>
<clipPath id="terminal-793625025-line-40">
    <rect x="0" y="977.5" width="2196" height="24.65"/>
            </clipPath>
<clipPath id="terminal-793625025-line-41">
    <rect x="0" y="1001.9" width="2196" height="24.65"/>
            </clipPath>
<clipPath id="terminal-793625025-line-42">
    <rect x="0" y="1026.3" width="2196" height="24.65"/>
            </clipPath>
<clipPath id="terminal-793625025-line-43">
    <rect x="0" y="1050.7" width="2196" height="24.65"/>
            </clipPath>
<clipPath id="terminal-793625025-line-44">
    <rect x="0" y="1075.1" width="2196" height="24.65"/>
            </clipPath>
<clipPath id="terminal-793625025-line-45">
    <rect x="0" y="1099.5" width="2196" height="24.65"/>
            </clipPath>
<clipPath id="terminal-793625025-line-46">
    <rect x="0" y="1123.9" width="2196" height="24.65"/>
            </clipPath>
<clipPath id="terminal-793625025-line-47">
    <rect x="0" y="1148.3" width="2196" height="24.65"/>
            </clipPath>
<clipPath id="terminal-793625025-line-48">
    <rect x="0" y="1172.7" width="2196" height="24.65"/>
            </clipPath>
    </defs>

    <rect fill="#292929" stroke="rgba(255,255,255,0.35)" stroke-width="1" x="1" y="1" width="2212" height="1268" rx="8"/><text class="terminal-793625025-title" fill="#c5c8c6" text-anchor="middle" x="1106" y="27">A</text>
            <g transform="translate(26,22)">
            <circle cx="0" cy="0" r="7" fill="#ff5f57"/>
            <circle cx="22" cy="0" r="7" fill="#febc2e"/>
            <circle cx="44" cy="0" r="7" fill="#28c840"/>
            </g>
        
    <g transform="translate(9, 41)" clip-path="url(#terminal-793625025-clip-terminal)">
    <rect fill="#1e1e1e" x="0" y="1.5" width="2196" height="24.65" shape-rendering="crispEdges"/><rect fill="#1e1e1e" x="0" y="25.9" width="2196" height="24.65" shape-rendering="crispEdges"/><rect fill="#1e1e1e" x="0" y="50.3" width="2196" height="24.65" shape-rendering="crispEdges"/><rect fill="#1e1e1e" x="0" y="74.7" width="2196" height="24.65" shape-rendering="crispEdges"/><rect fill="#1e1e1e" x="0" y="99.1" width="2196" height="24.65" shape-rendering="crispEdges"/><rect fill="#1e1e1e" x="0" y="123.5" width="2196" height="24.65" shape-rendering="crispEdges"/><rect fill="#1e1e1e" x="0" y="147.9" width="2196" height="24.65" shape-rendering="crispEdges"/><rect fill="#1e1e1e" x="0" y="172.3" width="2196" height="24.65" shape-rendering="crispEdges"/><rect fill="#1e1e1e" x="0" y="196.7" width="2196" height="24.65" shape-rendering="crispEdges"/><rect fill="#1e1e1e" x="0" y="221.1" width="2196" height="24.65" shape-rendering="crispEdges"/><rect fill="#1e1e1e" x="0" y="245.5" width="2196" height="24.65" shape-rendering="crispEdges"/><rect fill="#1e1e1e" x="0" y="269.9" width="2196" height="24.65" shape-rendering="crispEdges"/><rect fill="#1e1e1e" x="0" y="294.3" width="2196" height="24.65" shape-rendering="crispEdges"/><rect fill="#1e1e1e" x="0" y="318.7" width="2196" height="24.65" shape-rendering="crispEdges"/><rect fill="#1e1e1e" x="0" y="343.1" width="963.8" height="24.65" shape-rendering="crispEdges"/><rect fill="#000087" x="963.8" y="343.1" width="268.4" height="24.65" shape-rendering="crispEdges"/><rect fill="#1e1e1e" x="1232.2" y="343.1" width="963.8" height="24.65" shape-rendering="crispEdges"/><rect fill="#1e1e1e" x="0" y="367.5" width="1049.2" height="24.65" shape-rendering="crispEdges"/><rect fill="#1e1e1e" x="1049.2" y="367.5" width="85.4" height="24.65" shape-rendering="crispEdges"/><rect fill="#1e1e1e" x="1134.6" y="367.5" width="1061.4" height="24.65" shape-rendering="crispEdges"/><rect fill="#1e1e1e" x="0" y="391.9" width="1098" height="24.65" shape-rendering="crispEdges"/><rect fill="#1e1e1e" x="1098" y="391.9" width="0" height="24.65" shape-rendering="crispEdges"/><rect fill="#1e1e1e" x="1098" y="391.9" width="1098" height="24.65" shape-rendering="crispEdges"/><rect fill="#1e1e1e" x="0" y="416.3" width="658.8" height="24.65" shape-rendering="crispEdges"/><rect fill="#1e1e1e" x="658.8" y="416.3" width="866.2" height="24.65" shape-rendering="crispEdges"/><rect fill="#1e1e1e" x="1525" y="416.3" width="671" height="24.65" shape-rendering="crispEdges"/><rect fill="#1e1e1e" x="0" y="440.7" width="1098" height="24.65" shape-rendering="crispEdges"/><rect fill="#1e1e1e" x="1098" y="440.7" width="0" height="24.65" shape-rendering="crispEdges"/><rect fill="#1e1e1e" x="1098" y="440.7" width="1098" height="24.65" shape-rendering="crispEdges"/><rect fill="#1e1e1e" x="0" y="465.1" width="976" height="24.65" shape-rendering="crispEdges"/><rect fill="#1e1e1e" x="976" y="465.1" width="244" height="24.65" shape-rendering="crispEdges"/><rect fill="#1e1e1e" x="1220" y="465.1" width="976" height="24.65" shape-rendering="crispEdges"/><rect fill="#1e1e1e" x="0" y="489.5" width="1098" height="24.65" shape-rendering="crispEdges"/><rect fill="#1e1e1e" x="1098" y="489.5" width="0" height="24.65" shape-rendering="crispEdges"/><rect fill="#1e1e1e" x="1098" y="489.5" width="1098" height="24.65" shape-rendering="crispEdges"/><rect fill="#1e1e1e" x="0" y="513.9" width="902.8" height="24.65" shape-rendering="crispEdges"/><rect fill="#1e1e1e" x="902.8" y="513.9" width="390.4" height="24.65" shape-rendering="crispEdges"/><rect fill="#1e1e1e" x="1293.2" y="513.9" width="902.8" height="24.65" shape-rendering="crispEdges"/><rect fill="#1e1e1e" x="0" y="538.3" width="988.2" height="24.65" shape-rendering="crispEdges"/><rect fill="#1e1e1e" x="988.2" y="538.3" width="219.6" height="24.65" shape-rendering="crispEdges"/><rect fill="#1e1e1e" x="1207.8" y="538.3" width="988.2" height="24.65" shape-rendering="crispEdges"/><rect fill="#1e1e1e" x="0" y="562.7" width="2196" height="24.65" shape-rendering="crispEdges"/><rect fill="#1e1e1e" x="0" y="587.1" width="12.2" height="24.65" shape-rendering="crispEdges"/><rect fill="#1e1e1e" x="12.2" y="587.1" width="646.6" height="24.65" shape-rendering="crispEdges"/><rect fill="#242f38" x="658.8" y="587.1" width="12.2" height="24.65" shape-rendering="crispEdges"/><rect fill="#242f38" x="671" y="587.1" width="402.6" height="24.65" shape-rendering="crispEdges"/><rect fill="#242f38" x="1073.6" y="587.1" width="12.2" height="24.65" shape-rendering="crispEdges"/><rect fill="#1e1e1e" x="1085.8" y="587.1" width="12.2" height="24.65" shape-rendering="crispEdges"/><rect fill="#242f38" x="1098" y="587.1" width="12.2" height="24.65" shape-rendering="crispEdges"/><rect fill="#242f38" x="1110.2" y="587.1" width="402.6" height="24.65" shape-rendering="crispEdges"/><rect fill="#242f38" x="1512.8" y="587.1" width="12.2" height="24.65" shape-rendering="crispEdges"/><rect fill="#1e1e1e" x="1525" y="587.1" width="658.8" height="24.65" shape-rendering="crispEdges"/><rect fill="#1e1e1e" x="2183.8" y="587.1" width="12.2" height="24.65" shape-rendering="crispEdges"/><rect fill="#1e1e1e" x="0" y="611.5" width="12.2" height="24.65" shape-rendering="crispEdges"/><rect fill="#1e1e1e" x="12.2" y="611.5" width="646.6" height="24.65" shape-rendering="crispEdges"/><rect fill="#242f38" x="658.8" y="611.5" width="12.2" height="24.65" shape-rendering="crispEdges"/><rect fill="#242f38" x="671" y="611.5" width="402.6" height="24.65" shape-rendering="crispEdges"/><rect fill="#242f38" x="1073.6" y="611.5" width="12.2" height="24.65" shape-rendering="crispEdges"/><rect fill="#1e1e1e" x="1085.8" y="611.5" width="12.2" height="24.65" shape-rendering="crispEdges"/><rect fill="#242f38" x="1098" y="611.5" width="12.2" height="24.65" shape-rendering="crispEdges"/><rect fill="#242f38" x="1110.2" y="611.5" width="402.6" height="24.65" shape-rendering="crispEdges"/><rect fill="#242f38" x="1512.8" y="611.5" width="12.2" height="24.65" shape-rendering="crispEdges"/><rect fill="#1e1e1e" x="1525" y="611.5" width="658.8" height="24.65" shape-rendering="crispEdges"/><rect fill="#1e1e1e" x="2183.8" y="611.5" width="12.2" height="24.65" shape-rendering="crispEdges"/><rect fill="#1e1e1e" x="0" y="635.9" width="12.2" height="24.65" shape-rendering="crispEdges"/><rect fill="#1e1e1e" x="12.2" y="635.9" width="646.6" height="24.65" shape-rendering="crispEdges"/><rect fill="#242f38" x="658.8" y="635.9" width="12.2" height="24.65" shape-rendering="crispEdges"/><rect fill="#242f38" x="671" y="635.9" width="12.2" height="24.65" shape-rendering="crispEdges"/><rect fill="#242f38" x="683.2" y="635.9" width="73.2" height="24.65" shape-rendering="crispEdges"/><rect fill="#242f38" x="756.4" y="635.9" width="48.8" height="24.65" shape-rendering="crispEdges"/><rect fill="#242f38" x="805.2" y="635.9" width="183" height="24.65" shape-rendering="crispEdges"/><rect fill="#242f38" x="988.2" y="635.9" width="73.2" height="24.65" shape-rendering="crispEdges"/><rect fill="#242f38" x="1061.4" y="635.9" width="12.2" height="24.65" shape-rendering="crispEdges"/><rect fill="#242f38" x="1073.6" y="635.9" width="12.2" height="24.65" shape-rendering="crispEdges"/><rect fill="#1e1e1e" x="1085.8" y="635.9" width="12.2" height="24.65" shape-rendering="crispEdges"/><rect fill="#242f38" x="1098" y="635.9" width="12.2" height="24.65" shape-rendering="crispEdges"/><rect fill="#242f38" x="1110.2" y="635.9" width="12.2" height="24.65" shape-rendering="crispEdges"/><rect fill="#242f38" x="1122.4" y="635.9" width="61" height="24.65" shape-rendering="crispEdges"/><rect fill="#242f38" x="1183.4" y="635.9" width="48.8" height="24.65" shape-rendering="crispEdges"/><rect fill="#242f38" x="1232.2" y="635.9" width="207.4" height="24.65" shape-rendering="crispEdges"/><rect fill="#242f38" x="1439.6" y="635.9" width="61" height="24.65" shape-rendering="crispEdges"/><rect fill="#242f38" x="1500.6" y="635.9" width="12.2" height="24.65" shape-rendering="crispEdges"/><rect fill="#242f38" x="1512.8" y="635.9" width="12.2" height="24.65" shape-rendering="crispEdges"/><rect fill="#1e1e1e" x="1525" y="635.9" width="658.8" height="24.65" shape-rendering="crispEdges"/><rect fill="#1e1e1e" x="2183.8" y="635.9" width="12.2" height="24.65" shape-rendering="crispEdges"/><rect fill="#1e1e1e" x="0" y="660.3" width="12.2" height="24.65" shape-rendering="crispEdges"/><rect fill="#1e1e1e" x="12.2" y="660.3" width="646.6" height="24.65" shape-rendering="crispEdges"/><rect fill="#242f38" x="658.8" y="660.3" width="12.2" height="24.65" shape-rendering="crispEdges"/><rect fill="#242f38" x="671" y="660.3" width="12.2" height="24.65" shape-rendering="crispEdges"/><rect fill="#242f38" x="683.2" y="660.3" width="183" height="24.65" shape-rendering="crispEdges"/><rect fill="#242f38" x="866.2" y="660.3" width="0" height="24.65" shape-rendering="crispEdges"/><rect fill="#242f38" x="866.2" y="660.3" width="195.2" height="24.65" shape-rendering="crispEdges"/><rect fill="#242f38" x="1061.4" y="660.3" width="12.2" height="24.65" shape-rendering="crispEdges"/><rect fill="#242f38" x="1073.6" y="660.3" width="12.2" height="24.65" shape-rendering="crispEdges"/><rect fill="#1e1e1e" x="1085.8" y="660.3" width="12.2" height="24.65" shape-rendering="crispEdges"/><rect fill="#242f38" x="1098" y="660.3" width="12.2" height="24.65" shape-rendering="crispEdges"/><rect fill="#242f38" x="1110.2" y="660.3" width="12.2" height="24.65" shape-rendering="crispEdges"/><rect fill="#242f38" x="1122.4" y="660.3" width="183" height="24.65" shape-rendering="crispEdges"/><rect fill="#242f38" x="1305.4" y="660.3" width="0" height="24.65" shape-rendering="crispEdges"/><rect fill="#242f38" x="1305.4" y="660.3" width="195.2" height="24.65" shape-rendering="crispEdges"/><rect fill="#242f38" x="1500.6" y="660.3" width="12.2" height="24.65" shape-rendering="crispEdges"/><rect fill="#242f38" x="1512.8" y="660.3" width="12.2" height="24.65" shape-rendering="crispEdges"/><rect fill="#1e1e1e" x="1525" y="660.3" width="658.8" height="24.65" shape-rendering="crispEdges"/><rect fill="#1e1e1e" x="2183.8" y="660.3" width="12.2" height="24.65" shape-rendering="crispEdges"/><rect fill="#1e1e1e" x="0" y="684.7" width="12.2" height="24.65" shape-rendering="crispEdges"/><rect fill="#1e1e1e" x="12.2" y="684.7" width="646.6" height="24.65" shape-rendering="crispEdges"/><rect fill="#242f38" x="658.8" y="684.7" width="12.2" height="24.65" shape-rendering="crispEdges"/><rect fill="#242f38" x="671" y="684.7" width="12.2" height="24.65" shape-rendering="crispEdges"/><rect fill="#242f38" x="683.2" y="684.7" width="12.2" height="24.65" shape-rendering="crispEdges"/><rect fill="#242f38" x="695.4" y="684.7" width="353.8" height="24.65" shape-rendering="crispEdges"/><rect fill="#242f38" x="1049.2" y="684.7" width="12.2" height="24.65" shape-rendering="crispEdges"/><rect fill="#242f38" x="1061.4" y="684.7" width="12.2" height="24.65" shape-rendering="crispEdges"/><rect fill="#242f38" x="1073.6" y="684.7" width="12.2" height="24.65" shape-rendering="crispEdges"/><rect fill="#1e1e1e" x="1085.8" y="684.7" width="12.2" height="24.65" shape-rendering="crispEdges"/><rect fill="#242f38" x="1098" y="684.7" width="12.2" height="24.65" shape-rendering="crispEdges"/><rect fill="#242f38" x="1110.2" y="684.7" width="12.2" height="24.65" shape-rendering="crispEdges"/><rect fill="#242f38" x="1122.4" y="684.7" width="24.4" height="24.65" shape-rendering="crispEdges"/><rect fill="#242f38" x="1146.8" y="684.7" width="329.4" height="24.65" shape-rendering="crispEdges"/><rect fill="#242f38" x="1476.2" y="684.7" width="24.4" height="24.65" shape-rendering="crispEdges"/><rect fill="#242f38" x="1500.6" y="684.7" width="12.2" height="24.65" shape-rendering="crispEdges"/><rect fill="#242f38" x="1512.8" y="684.7" width="12.2" height="24.65" shape-rendering="crispEdges"/><rect fill="#1e1e1e" x="1525" y="684.7" width="658.8" height="24.65" shape-rendering="crispEdges"/><rect fill="#1e1e1e" x="2183.8" y="684.7" width="12.2" height="24.65" shape-rendering="crispEdges"/><rect fill="#1e1e1e" x="0" y="709.1" width="12.2" height="24.65" shape-rendering="crispEdges"/><rect fill="#1e1e1e" x="12.2" y="709.1" width="646.6" height="24.65" shape-rendering="crispEdges"/><rect fill="#242f38" x="658.8" y="709.1" width="12.2" height="24.65" shape-rendering="crispEdges"/><rect fill="#242f38" x="671" y="709.1" width="12.2" height="24.65" shape-rendering="crispEdges"/><rect fill="#242f38" x="683.2" y="709.1" width="85.4" height="24.65" shape-rendering="crispEdges"/><rect fill="#242f38" x="768.6" y="709.1" width="207.4" height="24.65" shape-rendering="crispEdges"/><rect fill="#242f38" x="976" y="709.1" width="85.4" height="24.65" shape-rendering="crispEdges"/><rect fill="#242f38" x="1061.4" y="709.1" width="12.2" height="24.65" shape-rendering="crispEdges"/><rect fill="#242f38" x="1073.6" y="709.1" width="12.2" height="24.65" shape-rendering="crispEdges"/><rect fill="#1e1e1e" x="1085.8" y="709.1" width="12.2" height="24.65" shape-rendering="crispEdges"/><rect fill="#242f38" x="1098" y="709.1" width="12.2" height="24.65" shape-rendering="crispEdges"/><rect fill="#242f38" x="1110.2" y="709.1" width="12.2" height="24.65" shape-rendering="crispEdges"/><rect fill="#242f38" x="1122.4" y="709.1" width="109.8" height="24.65" shape-rendering="crispEdges"/><rect fill="#242f38" x="1232.2" y="709.1" width="146.4" height="24.65" shape-rendering="crispEdges"/><rect fill="#242f38" x="1378.6" y="709.1" width="122" height="24.65" shape-rendering="crispEdges"/><rect fill="#242f38" x="1500.6" y="709.1" width="12.2" height="24.65" shape-rendering="crispEdges"/><rect fill="#242f38" x="1512.8" y="709.1" width="12.2" height="24.65" shape-rendering="crispEdges"/><rect fill="#1e1e1e" x="1525" y="709.1" width="658.8" height="24.65" shape-rendering="crispEdges"/><rect fill="#1e1e1e" x="2183.8" y="709.1" width="12.2" height="24.65" shape-rendering="crispEdges"/><rect fill="#1e1e1e" x="0" y="733.5" width="12.2" height="24.65" shape-rendering="crispEdges"/><rect fill="#1e1e1e" x="12.2" y="733.5" width="646.6" height="24.65" shape-rendering="crispEdges"/><rect fill="#242f38" x="658.8" y="733.5" width="12.2" height="24.65" shape-rendering="crispEdges"/><rect fill="#242f38" x="671" y="733.5" width="402.6" height="24.65" shape-rendering="crispEdges"/><rect fill="#242f38" x="1073.6" y="733.5" width="12.2" height="24.65" shape-rendering="crispEdges"/><rect fill="#1e1e1e" x="1085.8" y="733.5" width="12.2" height="24.65" shape-rendering="crispEdges"/><rect fill="#242f38" x="1098" y="733.5" width="12.2" height="24.65" shape-rendering="crispEdges"/><rect fill="#242f38" x="1110.2" y="733.5" width="402.6" height="24.65" shape-rendering="crispEdges"/><rect fill="#242f38" x="1512.8" y="733.5" width="12.2" height="24.65" shape-rendering="crispEdges"/><rect fill="#1e1e1e" x="1525" y="733.5" width="658.8" height="24.65" shape-rendering="crispEdges"/><rect fill="#1e1e1e" x="2183.8" y="733.5" width="12.2" height="24.65" shape-rendering="crispEdges"/><rect fill="#1e1e1e" x="0" y="757.9" width="12.2" height="24.65" shape-rendering="crispEdges"/><rect fill="#1e1e1e" x="12.2" y="757.9" width="646.6" height="24.65" shape-rendering="crispEdges"/><rect fill="#242f38" x="658.8" y="757.9" width="12.2" height="24.65" shape-rendering="crispEdges"/><rect fill="#242f38" x="671" y="757.9" width="402.6" height="24.65" shape-rendering="crispEdges"/><rect fill="#242f38" x="1073.6" y="757.9" width="12.2" height="24.65" shape-rendering="crispEdges"/><rect fill="#1e1e1e" x="1085.8" y="757.9" width="12.2" height="24.65" shape-rendering="crispEdges"/><rect fill="#242f38" x="1098" y="757.9" width="12.2" height="24.65" shape-rendering="crispEdges"/><rect fill="#242f38" x="1110.2" y="757.9" width="402.6" height="24.65" shape-rendering="crispEdges"/><rect fill="#242f38" x="1512.8" y="757.9" width="12.2" height="24.65" shape-rendering="crispEdges"/><rect fill="#1e1e1e" x="1525" y="757.9" width="658.8" height="24.65" shape-rendering="crispEdges"/><rect fill="#1e1e1e" x="2183.8" y="757.9" width="12.2" height="24.65" shape-rendering="crispEdges"/><rect fill="#1e1e1e" x="0" y="782.3" width="2196" height="24.65" shape-rendering="crispEdges"/><rect fill="#1e1e1e" x="0" y="806.7" width="2196" height="24.65" shape-rendering="crispEdges"/><rect fill="#1e1e1e" x="0" y="831.1" width="549" height="24.65" shape-rendering="crispEdges"/><rect fill="#1e1e1e" x="549" y="831.1" width="134.2" height="24.65" shape-rendering="crispEdges"/><rect fill="#1e1e1e" x="683.2" y="831.1" width="24.4" height="24.65" shape-rendering="crispEdges"/><rect fill="#1e1e1e" x="707.6" y="831.1" width="61" height="24.65" shape-rendering="crispEdges"/><rect fill="#1e1e1e" x="768.6" y="831.1" width="24.4" height="24.65" shape-rendering="crispEdges"/><rect fill="#1e1e1e" x="793" y="831.1" width="158.6" height="24.65" shape-rendering="crispEdges"/><rect fill="#1e1e1e" x="951.6" y="831.1" width="24.4" height="24.65" shape-rendering="crispEdges"/><rect fill="#1e1e1e" x="976" y="831.1" width="36.6" height="24.65" shape-rendering="crispEdges"/><rect fill="#1e1e1e" x="1012.6" y="831.1" width="61" height="24.65" shape-rendering="crispEdges"/><rect fill="#1e1e1e" x="1073.6" y="831.1" width="109.8" height="24.65" shape-rendering="crispEdges"/><rect fill="#1e1e1e" x="1183.4" y="831.1" width="85.4" height="24.65" shape-rendering="crispEdges"/><rect fill="#1e1e1e" x="1268.8" y="831.1" width="122" height="24.65" shape-rendering="crispEdges"/><rect fill="#1e1e1e" x="1390.8" y="831.1" width="61" height="24.65" shape-rendering="crispEdges"/><rect fill="#1e1e1e" x="1451.8" y="831.1" width="73.2" height="24.65" shape-rendering="crispEdges"/><rect fill="#1e1e1e" x="1525" y="831.1" width="61" height="24.65" shape-rendering="crispEdges"/><rect fill="#1e1e1e" x="1586" y="831.1" width="61" height="24.65" shape-rendering="crispEdges"/><rect fill="#1e1e1e" x="1647" y="831.1" width="549" height="24.65" shape-rendering="crispEdges"/><rect fill="#1e1e1e" x="0" y="855.5" width="2196" height="24.65" shape-rendering="crispEdges"/><rect fill="#1e1e1e" x="0" y="879.9" width="2196" height="24.65" shape-rendering="crispEdges"/><rect fill="#1e1e1e" x="0" y="904.3" width="2196" height="24.65" shape-rendering="crispEdges"/><rect fill="#1e1e1e" x="0" y="928.7" width="2196" height="24.65" shape-rendering="crispEdges"/><rect fill="#1e1e1e" x="0" y="953.1" width="2196" height="24.65" shape-rendering="crispEdges"/><rect fill="#1e1e1e" x="0" y="977.5" width="2196" height="24.65" shape-rendering="crispEdges"/><rect fill="#1e1e1e" x="0" y="1001.9" width="2196" height="24.65" shape-rendering="crispEdges"/><rect fill="#1e1e1e" x="0" y="1026.3" width="2196" height="24.65" shape-rendering="crispEdges"/><rect fill="#1e1e1e" x="0" y="1050.7" width="2196" height="24.65" shape-rendering="crispEdges"/><rect fill="#1e1e1e" x="0" y="1075.1" width="2196" height="24.65" shape-rendering="crispEdges"/><rect fill="#1e1e1e" x="0" y="1099.5" width="2196" height="24.65" shape-rendering="crispEdges"/><rect fill="#1e1e1e" x="0" y="1123.9" width="2196" height="24.65" shape-rendering="crispEdges"/><rect fill="#1e1e1e" x="0" y="1148.3" width="2196" height="24.65" shape-rendering="crispEdges"/><rect fill="#1e1e1e" x="0" y="1172.7" width="2196" height="24.65" shape-rendering="crispEdges"/><rect fill="#1e1e1e" x="0" y="1197.1" width="2196" height="24.65" shape-rendering="crispEdges"/>
    <g class="terminal-793625025-matrix">
    <text class="terminal-793625025-r1" x="2196" y="20" textLength="12.2" clip-path="url(#terminal-793625025-line-0)">
</text><text class="terminal-793625025-r1" x="2196" y="44.4" textLength="12.2" clip-path="url(#terminal-793625025-line-1)">
</text><text class="terminal-793625025-r1" x="2196" y="68.8" textLength="12.2" clip-path="url(#terminal-793625025-line-2)">
</text><text class="terminal-793625025-r1" x="2196" y="93.2" textLength="12.2" clip-path="url(#terminal-793625025-line-3)">
</text><text class="terminal-793625025-r1" x="2196" y="117.6" textLength="12.2" clip-path="url(#terminal-793625025-line-4)">
</text><text class="terminal-793625025-r1" x="2196" y="142" textLength="12.2" clip-path="url(#terminal-793625025-line-5)">
</text><text class="terminal-793625025-r1" x="2196" y="166.4" textLength="12.2" clip-path="url(#terminal-793625025-line-6)">
</text><text class="terminal-793625025-r1" x="2196" y="190.8" textLength="12.2" clip-path="url(#terminal-793625025-line-7)">
</text><text class="terminal-793625025-r1" x="2196" y="215.2" textLength="12.2" clip-path="url(#terminal-793625025-line-8)">
</text><text class="terminal-793625025-r1" x="2196" y="239.6" textLength="12.2" clip-path="url(#terminal-793625025-line-9)">
</text><text class="terminal-793625025-r1" x="2196" y="264" textLength="12.2" clip-path="url(#terminal-793625025-line-10)">
</text><text class="terminal-793625025-r1" x="2196" y="288.4" textLength="12.2" clip-path="url(#terminal-793625025-line-11)">
</text><text class="terminal-793625025-r1" x="2196" y="312.8" textLength="12.2" clip-path="url(#terminal-793625025-line-12)">
</text><text class="terminal-793625025-r1" x="2196" y="337.2" textLength="12.2" clip-path="url(#terminal-793625025-line-13)">
</text><text class="terminal-793625025-r2" x="963.8" y="361.6" textLength="268.4" clip-path="url(#terminal-793625025-line-14)">&#160;&#160;EVENT:&#160;Brain&#160;Leech&#160;&#160;</text><text class="terminal-793625025-r1" x="2196" y="361.6" textLength="12.2" clip-path="url(#terminal-793625025-line-14)">
</text><text class="terminal-793625025-r3" x="1049.2" y="386" textLength="85.4" clip-path="url(#terminal-793625025-line-15)">*thunk*</text><text class="terminal-793625025-r1" x="2196" y="386" textLength="12.2" clip-path="url(#terminal-793625025-line-15)">
</text><text class="terminal-793625025-r1" x="2196" y="410.4" textLength="12.2" clip-path="url(#terminal-793625025-line-16)">
</text><text class="terminal-793625025-r3" x="658.8" y="434.8" textLength="866.2" clip-path="url(#terminal-793625025-line-17)">A&#160;sharp&#160;pain&#160;is&#160;felt&#160;atop&#160;your&#160;head&#160;and&#160;a&#160;thought&#160;stabs&#160;into&#160;your&#160;mind.</text><text class="terminal-793625025-r1" x="2196" y="434.8" textLength="12.2" clip-path="url(#terminal-793625025-line-17)">
</text><text class="terminal-793625025-r1" x="2196" y="459.2" textLength="12.2" clip-path="url(#terminal-793625025-line-18)">
</text><text class="terminal-793625025-r3" x="976" y="483.6" textLength="244" clip-path="url(#terminal-793625025-line-19)">“SHARE&#160;KNOWLEDGE???”</text><text class="terminal-793625025-r1" x="2196" y="483.6" textLength="12.2" clip-path="url(#terminal-793625025-line-19)">
</text><text class="terminal-793625025-r1" x="2196" y="508" textLength="12.2" clip-path="url(#terminal-793625025-line-20)">
</text><text class="terminal-793625025-r3" x="902.8" y="532.4" textLength="390.4" clip-path="url(#terminal-793625025-line-21)">You&#160;are&#160;unsure&#160;how&#160;to&#160;proceed...</text><text class="terminal-793625025-r1" x="2196" y="532.4" textLength="12.2" clip-path="url(#terminal-793625025-line-21)">
</text><text class="terminal-793625025-r2" x="988.2" y="556.8" textLength="219.6" clip-path="url(#terminal-793625025-line-22)">&#160;Choose&#160;an&#160;option:</text><text class="terminal-793625025-r1" x="2196" y="556.8" textLength="12.2" clip-path="url(#terminal-793625025-line-22)">
</text><text class="terminal-793625025-r1" x="2196" y="581.2" textLength="12.2" clip-path="url(#terminal-793625025-line-23)">
</text><text class="terminal-793625025-r5" x="658.8" y="605.6" textLength="12.2" clip-path="url(#terminal-793625025-line-24)">╭</text><text class="terminal-793625025-r5" x="671" y="605.6" textLength="402.6" clip-path="url(#terminal-793625025-line-24)">─────────────────────────────────</text><text class="terminal-793625025-r5" x="1073.6" y="605.6" textLength="12.2" clip-path="url(#terminal-793625025-line-24)">╮</text><text class="terminal-793625025-r5" x="1098" y="605.6" textLength="12.2" clip-path="url(#terminal-793625025-line-24)">╭</text><text class="terminal-793625025-r5" x="1110.2" y="605.6" textLength="402.6" clip-path="url(#terminal-793625025-line-24)">─────────────────────────────────</text><text class="terminal-793625025-r5" x="1512.8" y="605.6" textLength="12.2" clip-path="url(#terminal-793625025-line-24)">╮</text><text class="terminal-793625025-r1" x="2196" y="605.6" textLength="12.2" clip-path="url(#terminal-793625025-line-24)">
</text><text class="terminal-793625025-r5" x="658.8" y="630" textLength="12.2" clip-path="url(#terminal-793625025-line-25)">│</text><text class="terminal-793625025-r5" x="1073.6" y="630" textLength="12.2" clip-path="url(#terminal-793625025-line-25)">│</text><text class="terminal-793625025-r5" x="1098" y="630" textLength="12.2" clip-path="url(#terminal-793625025-line-25)">│</text><text class="terminal-793625025-r5" x="1512.8" y="630" textLength="12.2" clip-path="url(#terminal-793625025-line-25)">│</text><text class="terminal-793625025-r1" x="2196" y="630" textLength="12.2" clip-path="url(#terminal-793625025-line-25)">
</text><text class="terminal-793625025-r5" x="658.8" y="654.4" textLength="12.2" clip-path="url(#terminal-793625025-line-26)">│</text><text class="terminal-793625025-r6" x="756.4" y="654.4" textLength="48.8" clip-path="url(#terminal-793625025-line-26)">[1]&#160;</text><text class="terminal-793625025-r2" x="805.2" y="654.4" textLength="183" clip-path="url(#terminal-793625025-line-26)">Share&#160;Knowledge</text><text class="terminal-793625025-r5" x="1073.6" y="654.4" textLength="12.2" clip-path="url(#terminal-793625025-line-26)">│</text><text class="terminal-793625025-r5" x="1098" y="654.4" textLength="12.2" clip-path="url(#terminal-793625025-line-26)">│</text><text class="terminal-793625025-r6" x="1183.4" y="654.4" textLength="48.8" clip-path="url(#terminal-793625025-line-26)">[2]&#160;</text><text class="terminal-793625025-r2" x="1232.2" y="654.4" textLength="207.4" clip-path="url(#terminal-793625025-line-26)">Rip&#160;the&#160;Leech&#160;Off</text><text class="terminal-793625025-r5" x="1512.8" y="654.4" textLength="12.2" clip-path="url(#terminal-793625025-line-26)">│</text><text class="terminal-793625025-r1" x="2196" y="654.4" textLength="12.2" clip-path="url(#terminal-793625025-line-26)">
</text><text class="terminal-793625025-r5" x="658.8" y="678.8" textLength="12.2" clip-path="url(#terminal-793625025-line-27)">│</text><text class="terminal-793625025-r5" x="1073.6" y="678.8" textLength="12.2" clip-path="url(#terminal-793625025-line-27)">│</text><text class="terminal-793625025-r5" x="1098" y="678.8" textLength="12.2" clip-path="url(#terminal-793625025-line-27)">│</text><text class="terminal-793625025-r5" x="1512.8" y="678.8" textLength="12.2" clip-path="url(#terminal-793625025-line-27)">│</text><text class="terminal-793625025-r1" x="2196" y="678.8" textLength="12.2" clip-path="url(#terminal-793625025-line-27)">
</text><text class="terminal-793625025-r5" x="658.8" y="703.2" textLength="12.2" clip-path="url(#terminal-793625025-line-28)">│</text><text class="terminal-793625025-r8" x="695.4" y="703.2" textLength="353.8" clip-path="url(#terminal-793625025-line-28)">Choose&#160;1&#160;of&#160;5&#160;random&#160;cards&#160;to</text><text class="terminal-793625025-r5" x="1073.6" y="703.2" textLength="12.2" clip-path="url(#terminal-793625025-line-28)">│</text><text class="terminal-793625025-r5" x="1098" y="703.2" textLength="12.2" clip-path="url(#terminal-793625025-line-28)">│</text><text class="terminal-793625025-r8" x="1146.8" y="703.2" textLength="329.4" clip-path="url(#terminal-793625025-line-28)">Lose&#160;5&#160;HP.&#160;Gain&#160;a&#160;Colorless</text><text class="terminal-793625025-r5" x="1512.8" y="703.2" textLength="12.2" clip-path="url(#terminal-793625025-line-28)">│</text><text class="terminal-793625025-r1" x="2196" y="703.2" textLength="12.2" clip-path="url(#terminal-793625025-line-28)">
</text><text class="terminal-793625025-r5" x="658.8" y="727.6" textLength="12.2" clip-path="url(#terminal-793625025-line-29)">│</text><text class="terminal-793625025-r8" x="768.6" y="727.6" textLength="207.4" clip-path="url(#terminal-793625025-line-29)">add&#160;to&#160;your&#160;Deck.</text><text class="terminal-793625025-r5" x="1073.6" y="727.6" textLength="12.2" clip-path="url(#terminal-793625025-line-29)">│</text><text class="terminal-793625025-r5" x="1098" y="727.6" textLength="12.2" clip-path="url(#terminal-793625025-line-29)">│</text><text class="terminal-793625025-r8" x="1232.2" y="727.6" textLength="146.4" clip-path="url(#terminal-793625025-line-29)">card&#160;reward.</text><text class="terminal-793625025-r5" x="1512.8" y="727.6" textLength="12.2" clip-path="url(#terminal-793625025-line-29)">│</text><text class="terminal-793625025-r1" x="2196" y="727.6" textLength="12.2" clip-path="url(#terminal-793625025-line-29)">
</text><text class="terminal-793625025-r5" x="658.8" y="752" textLength="12.2" clip-path="url(#terminal-793625025-line-30)">│</text><text class="terminal-793625025-r5" x="1073.6" y="752" textLength="12.2" clip-path="url(#terminal-793625025-line-30)">│</text><text class="terminal-793625025-r5" x="1098" y="752" textLength="12.2" clip-path="url(#terminal-793625025-line-30)">│</text><text class="terminal-793625025-r5" x="1512.8" y="752" textLength="12.2" clip-path="url(#terminal-793625025-line-30)">│</text><text class="terminal-793625025-r1" x="2196" y="752" textLength="12.2" clip-path="url(#terminal-793625025-line-30)">
</text><text class="terminal-793625025-r5" x="658.8" y="776.4" textLength="12.2" clip-path="url(#terminal-793625025-line-31)">╰</text><text class="terminal-793625025-r5" x="671" y="776.4" textLength="402.6" clip-path="url(#terminal-793625025-line-31)">─────────────────────────────────</text><text class="terminal-793625025-r5" x="1073.6" y="776.4" textLength="12.2" clip-path="url(#terminal-793625025-line-31)">╯</text><text class="terminal-793625025-r5" x="1098" y="776.4" textLength="12.2" clip-path="url(#terminal-793625025-line-31)">╰</text><text class="terminal-793625025-r5" x="1110.2" y="776.4" textLength="402.6" clip-path="url(#terminal-793625025-line-31)">─────────────────────────────────</text><text class="terminal-793625025-r5" x="1512.8" y="776.4" textLength="12.2" clip-path="url(#terminal-793625025-line-31)">╯</text><text class="terminal-793625025-r1" x="2196" y="776.4" textLength="12.2" clip-path="url(#terminal-793625025-line-31)">
</text><text class="terminal-793625025-r1" x="2196" y="800.8" textLength="12.2" clip-path="url(#terminal-793625025-line-32)">
</text><text class="terminal-793625025-r1" x="2196" y="825.2" textLength="12.2" clip-path="url(#terminal-793625025-line-33)">
</text><text class="terminal-793625025-r10" x="549" y="849.6" textLength="134.2" clip-path="url(#terminal-793625025-line-34)">❤&#160;9999/9999</text><text class="terminal-793625025-r6" x="707.6" y="849.6" textLength="61" clip-path="url(#terminal-793625025-line-34)">◉&#160;116</text><text class="terminal-793625025-r12" x="793" y="849.6" textLength="158.6" clip-path="url(#terminal-793625025-line-34)">Act&#160;1&#160;Floor&#160;3</text><text class="terminal-793625025-r11" x="976" y="849.6" textLength="36.6" clip-path="url(#terminal-793625025-line-34)">|&#160;&#160;</text><text class="terminal-793625025-r6" x="1012.6" y="849.6" textLength="61" clip-path="url(#terminal-793625025-line-34)">[1-2]</text><text class="terminal-793625025-r11" x="1073.6" y="849.6" textLength="109.8" clip-path="url(#terminal-793625025-line-34)">&#160;Select&#160;&#160;</text><text class="terminal-793625025-r6" x="1183.4" y="849.6" textLength="85.4" clip-path="url(#terminal-793625025-line-34)">[Enter]</text><text class="terminal-793625025-r11" x="1268.8" y="849.6" textLength="122" clip-path="url(#terminal-793625025-line-34)">&#160;Confirm&#160;&#160;</text><text class="terminal-793625025-r6" x="1390.8" y="849.6" textLength="61" clip-path="url(#terminal-793625025-line-34)">[Esc]</text><text class="terminal-793625025-r11" x="1451.8" y="849.6" textLength="73.2" clip-path="url(#terminal-793625025-line-34)">&#160;Leave</text><text class="terminal-793625025-r6" x="1525" y="849.6" textLength="61" clip-path="url(#terminal-793625025-line-34)">&#160;&#160;[?]</text><text class="terminal-793625025-r11" x="1586" y="849.6" textLength="61" clip-path="url(#terminal-793625025-line-34)">&#160;help</text><text class="terminal-793625025-r1" x="2196" y="849.6" textLength="12.2" clip-path="url(#terminal-793625025-line-34)">
</text><text class="terminal-793625025-r1" x="2196" y="874" textLength="12.2" clip-path="url(#terminal-793625025-line-35)">
</text><text class="terminal-793625025-r1" x="2196" y="898.4" textLength="12.2" clip-path="url(#terminal-793625025-line-36)">
</text><text class="terminal-793625025-r1" x="2196" y="922.8" textLength="12.2" clip-path="url(#terminal-793625025-line-37)">
</text><text class="terminal-793625025-r1" x="2196" y="947.2" textLength="12.2" clip-path="url(#terminal-793625025-line-38)">
</text><text class="terminal-793625025-r1" x="2196" y="971.6" textLength="12.2" clip-path="url(#terminal-793625025-line-39)">
</text><text class="terminal-793625025-r1" x="2196" y="996" textLength="12.2" clip-path="url(#terminal-793625025-line-40)">
</text><text class="terminal-793625025-r1" x="2196" y="1020.4" textLength="12.2" clip-path="url(#terminal-793625025-line-41)">
</text><text class="terminal-793625025-r1" x="2196" y="1044.8" textLength="12.2" clip-path="url(#terminal-793625025-line-42)">
</text><text class="terminal-793625025-r1" x="2196" y="1069.2" textLength="12.2" clip-path="url(#terminal-793625025-line-43)">
</text><text class="terminal-793625025-r1" x="2196" y="1093.6" textLength="12.2" clip-path="url(#terminal-793625025-line-44)">
</text><text class="terminal-793625025-r1" x="2196" y="1118" textLength="12.2" clip-path="url(#terminal-793625025-line-45)">
</text><text class="terminal-793625025-r1" x="2196" y="1142.4" textLength="12.2" clip-path="url(#terminal-793625025-line-46)">
</text><text class="terminal-793625025-r1" x="2196" y="1166.8" textLength="12.2" clip-path="url(#terminal-793625025-line-47)">
</text><text class="terminal-793625025-r1" x="2196" y="1191.2" textLength="12.2" clip-path="url(#terminal-793625025-line-48)">
</text>
    </g>
    </g>
</svg>
